HIERARCHY
ROOT Hips
{
	OFFSET 0.000000 0.000000 0.000000
	CHANNELS 6 Xposition Yposition Zposition Xrotation Yrotation Zrotation
	JOINT LeftUpLeg_virtual
	{
		OFFSET 0.000000 0.000000 0.000000
		CHANNELS 3 Xrotation Yrotation Zrotation
		JOINT LeftUpLeg
		{
			OFFSET 15.427100 -6.655098 0.678600
			CHANNELS 3 Xrotation Yrotation Zrotation
			JOINT LeftLeg
			{
				OFFSET 4.081073 -39.591068 13.024000
				CHANNELS 3 Xrotation Yrotation Zrotation
				JOINT LeftFoot
				{
					OFFSET -4.081074 -37.707932 -15.979700
					CHANNELS 3 Xrotation Yrotation Zrotation
					JOINT LeftToeBase
					{
						OFFSET 5.346399 -15.068900 20.645000
						CHANNELS 3 Xrotation Yrotation Zrotation
						JOINT LeftToe_End
						{
							OFFSET 2.754700 0.931300 11.300900
							CHANNELS 3 Xrotation Yrotation Zrotation
							End Site
							{
								OFFSET 0 0 0
							}
						}
					}
				}
			}
		}
	}
	JOINT RightUpLeg_virtual
	{
		OFFSET 0.000000 0.000000 0.000000
		CHANNELS 3 Xrotation Yrotation Zrotation
		JOINT RightUpLeg
		{
			OFFSET -15.569500 -6.655098 0.678600
			CHANNELS 3 Xrotation Yrotation Zrotation
			JOINT RightLeg
			{
				OFFSET -4.081825 -39.591045 13.023800
				CHANNELS 3 Xrotation Yrotation Zrotation
				JOINT RightFoot
				{
					OFFSET 4.081824 -37.707954 -15.979600
					CHANNELS 3 Xrotation Yrotation Zrotation
					JOINT RightToeBase
					{
						OFFSET -5.346400 -15.068900 20.645000
						CHANNELS 3 Xrotation Yrotation Zrotation
						JOINT RightToe_End
						{
							OFFSET -2.754700 0.931300 11.300900
							CHANNELS 3 Xrotation Yrotation Zrotation
							End Site
							{
								OFFSET 0 0 0
							}
						}
					}
				}
			}
		}
	}
	JOINT Spine_virtual
	{
		OFFSET 0.000000 0.000000 0.000000
		CHANNELS 3 Xrotation Yrotation Zrotation
		JOINT Spine
		{
			OFFSET -0.279200 12.230698 -2.892100
			CHANNELS 3 Xrotation Yrotation Zrotation
			JOINT Spine1
			{
				OFFSET -0.232667 10.192268 -1.242267
				CHANNELS 3 Xrotation Yrotation Zrotation
				JOINT Spine1_split
				{
					OFFSET -0.232667 10.192268 -1.242267
					CHANNELS 3 Xrotation Yrotation Zrotation
					JOINT Spine2
					{
						OFFSET -0.232667 10.192268 -1.242267
						CHANNELS 3 Xrotation Yrotation Zrotation
						JOINT Neck_virtual
						{
							OFFSET 0.000000 0.000000 0.000000
							CHANNELS 3 Xrotation Yrotation Zrotation
							JOINT Neck
							{
								OFFSET -0.418800 17.814194 8.416900
								CHANNELS 3 Xrotation Yrotation Zrotation
								JOINT Head
								{
									OFFSET 0.000000 7.031097 3.806800
									CHANNELS 3 Xrotation Yrotation Zrotation
									JOINT HeadTop_End
									{
										OFFSET 0.000000 24.646606 12.978600
										CHANNELS 3 Xrotation Yrotation Zrotation
										End Site
										{
											OFFSET 0 0 0
										}
									}
								}
							}
						}
						JOINT LeftShoulder_virtual
						{
							OFFSET 0.000000 0.000000 0.000000
							CHANNELS 3 Xrotation Yrotation Zrotation
							JOINT LeftShoulder
							{
								OFFSET 8.476499 7.247704 -3.868750
								CHANNELS 3 Xrotation Yrotation Zrotation
								JOINT LeftShoulder_split
								{
									OFFSET 8.476499 7.247704 -3.868750
									CHANNELS 3 Xrotation Yrotation Zrotation
									JOINT LeftArm
									{
										OFFSET 9.308998 -2.777710 0.208600
										CHANNELS 3 Xrotation Yrotation Zrotation
										JOINT LeftForeArm
										{
											OFFSET 29.972298 0.000000 0.000000
											CHANNELS 3 Xrotation Yrotation Zrotation
											JOINT LeftHand
											{
												OFFSET 26.026505 0.000000 0.000000
												CHANNELS 3 Xrotation Yrotation Zrotation
												End Site
												{
													OFFSET 0 0 0
												}
											}
										}
									}
								}
							}
						}
						JOINT RightShoulder_virtual
						{
							OFFSET 0.000000 0.000000 0.000000
							CHANNELS 3 Xrotation Yrotation Zrotation
							JOINT RightShoulder
							{
								OFFSET -7.570500 7.247704 -3.868750
								CHANNELS 3 Xrotation Yrotation Zrotation
								JOINT RightShoulder_split
								{
									OFFSET -7.570500 7.247704 -3.868750
									CHANNELS 3 Xrotation Yrotation Zrotation
									JOINT RightArm
									{
										OFFSET -9.308998 -2.777710 0.208500
										CHANNELS 3 Xrotation Yrotation Zrotation
										JOINT RightForeArm
										{
											OFFSET -29.972300 0.000000 0.000000
											CHANNELS 3 Xrotation Yrotation Zrotation
											JOINT RightHand
											{
												OFFSET -26.026505 0.000000 0.000000
												CHANNELS 3 Xrotation Yrotation Zrotation
												End Site
												{
													OFFSET 0 0 0
												}
											}
										}
									}
								}
							}
						}
					}
				}
			}
		}
	}
}
MOTION
Frames: 7
Frame Time: 0.03333333
3.930307 87.554047 -8.422283 0.000000 0.000000 0.000000 7.935925 -9.847407 2.334858 -38.518968 7.138109 13.415941 26.111501 -0.619313 2.493202 5.308683 2.050035 -14.664945 6.345100 -3.505345 2.231823 0.000000 0.000000 0.000000 8.186837 -10.870761 2.499718 -9.709467 -15.360780 -15.293026 23.435532 5.937822 3.711191 -20.416067 -13.121581 18.064817 5.004938 5.827297 -3.904760 0.000000 0.000000 0.000000 7.728990 -2.796304 1.748128 14.436331 4.417499 -0.189229 4.622299 -3.819252 -0.052769 0.129603 -0.061054 0.029692 0.000000 0.000000 0.000000 6.538658 -0.820395 0.940994 -18.777674 8.192743 1.022023 -15.846585 -29.219566 -21.373837 0.000000 0.000000 0.000000 5.718038 -2.703626 -0.567638 4.877738 -13.831951 1.363540 4.903448 -0.496672 -0.240434 -32.109238 -4.699302 -86.188545 13.446360 -44.206443 6.893092 0.000000 0.000000 0.000000 7.973221 -2.209827 0.857222 4.921313 18.602758 -17.250613 0.852808 3.974505 -2.076480 -38.281021 17.544350 88.982694 -34.759878 47.676950 30.317803 0.000000 0.000000 0.000000 
3.937619 87.517395 -8.446762 0.000000 0.000000 0.000000 7.883498 -10.087064 2.368329 -38.338268 6.981135 13.453737 26.289495 -0.653392 2.454347 5.199212 2.222296 -14.593254 6.406501 -3.527261 2.308891 0.000000 0.000000 0.000000 8.109663 -11.197147 2.523717 -9.895832 -15.328592 -15.346359 23.568743 5.958727 3.737226 -20.435202 -13.079369 17.913938 5.436137 5.808097 -3.863452 0.000000 0.000000 0.000000 7.565324 -3.077619 1.761028 14.452895 4.401363 -0.149248 4.521752 -3.828037 0.008869 0.101041 -0.052058 0.018409 0.000000 0.000000 0.000000 6.571072 -0.778971 1.024731 -18.644033 8.261372 0.847463 -15.709386 -29.319926 -21.562494 0.000000 0.000000 0.000000 5.624945 -2.681263 -0.552929 4.998483 -13.602340 1.159992 4.049453 -0.482381 -0.038965 -31.975975 -4.633656 -85.661446 12.903068 -44.846086 6.542249 0.000000 0.000000 0.000000 7.858713 -2.194211 0.957656 4.915814 18.465268 -17.402217 0.831266 3.775177 -2.221109 -38.762584 16.933869 89.037513 -35.120877 47.741851 30.577446 0.000000 0.000000 0.000000 
3.971417 87.437790 -8.528442 0.000000 0.000000 0.000000 7.766117 -10.803913 2.464426 -37.992125 6.989805 13.586617 26.482009 -0.579759 2.484094 4.904931 2.669761 -14.605528 6.454475 -3.561048 2.307210 0.000000 0.000000 0.000000 8.000788 -12.004522 2.625223 -10.465130 -15.118337 -15.499094 23.916923 6.115401 3.721007 -20.302136 -12.877815 17.911276 5.770003 5.789166 -4.102614 0.000000 0.000000 0.000000 7.377456 -3.644166 1.790545 14.502191 4.394399 -0.074375 4.312684 -3.778960 0.120571 0.080009 -0.024867 0.013798 0.000000 0.000000 0.000000 6.512759 -0.703948 1.164800 -18.286735 8.500187 0.516888 -15.344011 -29.397954 -21.650622 0.000000 0.000000 0.000000 5.435971 -2.615282 -0.520239 5.117702 -13.452572 0.631657 3.436282 -0.686263 0.057204 -31.971398 -4.934779 -84.564388 13.472992 -45.456210 7.014533 0.000000 0.000000 0.000000 7.698439 -2.122651 1.114358 4.898139 18.131881 -17.509330 0.807256 3.740519 -2.322569 -39.465321 16.993027 88.908811 -35.067083 47.581990 30.224253 0.000000 0.000000 0.000000 
3.999400 87.325691 -8.681347 0.000000 0.000000 0.000000 7.594171 -11.878943 2.617326 -37.517570 7.136046 13.778593 26.667138 -0.453017 2.568438 4.475941 3.328987 -14.735278 6.443085 -3.608323 2.236734 0.000000 0.000000 0.000000 7.892571 -13.126798 2.801213 -11.314542 -14.740651 -15.715536 24.441444 6.389805 3.652254 -20.070250 -12.521100 17.984974 6.029183 5.764182 -4.559752 0.000000 0.000000 0.000000 7.170251 -4.400775 1.840144 14.610832 4.401477 0.012554 4.018997 -3.677195 0.264374 0.081731 0.008164 0.019734 0.000000 0.000000 0.000000 6.374275 -0.593784 1.338687 -17.747306 8.844408 0.095515 -14.755387 -29.510379 -21.561382 0.000000 0.000000 0.000000 5.177670 -2.507259 -0.468689 5.225594 -13.389403 -0.137018 3.157942 -1.117589 0.119844 -32.165410 -5.766101 -83.237869 15.015549 -45.743607 8.153129 0.000000 0.000000 0.000000 7.507499 -1.991786 1.306546 4.889737 17.654791 -17.620920 0.726103 3.878857 -2.271590 -40.268798 17.752724 88.691960 -34.621993 47.272108 29.318491 0.000000 0.000000 0.000000 
4.014517 87.201004 -8.898754 0.000000 0.000000 0.000000 7.387280 -13.179097 2.811789 -36.955442 7.374652 14.005002 26.855457 -0.330610 2.688991 4.033867 4.127780 -15.024425 6.377891 -3.672287 2.112529 0.000000 0.000000 0.000000 7.778142 -14.408786 3.030346 -12.307319 -14.232061 -15.956222 25.070915 6.724182 3.529959 -19.820598 -12.064305 17.972091 6.359739 5.714723 -5.138914 0.000000 0.000000 0.000000 6.947021 -5.268183 1.912172 14.788821 4.422883 0.080752 3.661187 -3.532115 0.421170 0.104336 0.049517 0.015794 0.000000 0.000000 0.000000 6.176712 -0.449322 1.522894 -17.132932 9.231467 -0.342982 -13.990630 -29.735690 -21.236438 0.000000 0.000000 0.000000 4.863401 -2.368953 -0.393864 5.306722 -13.420845 -1.015284 3.156348 -1.660056 0.238353 -32.633930 -7.224457 -81.943624 17.186030 -45.649798 9.694399 0.000000 0.000000 0.000000 7.277458 -1.820204 1.502596 4.915158 17.094922 -17.812153 0.681369 4.019171 -2.131077 -41.051404 19.125634 88.434489 -33.872718 46.924206 27.990392 0.000000 0.000000 0.000000 
4.013543 87.078979 -9.164165 0.000000 0.000000 0.000000 7.165696 -14.564156 3.036357 -36.381228 7.660257 14.253760 27.048878 -0.249175 2.812561 3.677764 4.988181 -15.489225 6.281012 -3.752675 1.949319 0.000000 0.000000 0.000000 7.651305 -15.743050 3.294196 -13.361295 -13.652927 -16.193103 25.736332 7.055987 3.373609 -19.580769 -11.551160 17.804391 6.756779 5.633054 -5.752334 0.000000 0.000000 0.000000 6.712139 -6.119993 2.014874 15.027862 4.455957 0.106069 3.238273 -3.361249 0.568994 0.134345 0.086279 0.006866 0.000000 0.000000 0.000000 5.937054 -0.289082 1.687336 -16.547680 9.611222 -0.755381 -13.104329 -30.150210 -20.627699 0.000000 0.000000 0.000000 4.518428 -2.218217 -0.295678 5.363623 -13.543067 -1.866047 3.394508 -2.045739 0.429767 -33.314128 -9.174796 -80.805557 19.564855 -45.237528 11.331451 0.000000 0.000000 0.000000 7.011627 -1.635736 1.672672 4.995406 16.527490 -18.174310 0.704149 4.209420 -1.984160 -41.681554 20.936417 88.189149 -32.905536 46.671970 26.416482 0.000000 0.000000 0.000000 
4.006082 86.973396 -9.450359 0.000000 0.000000 0.000000 6.969262 -15.963431 3.279806 -35.826275 7.965846 14.529238 27.222677 -0.195703 2.909783 3.433924 5.880488 -16.065069 6.201799 -3.850266 1.735000 0.000000 0.000000 0.000000 7.506957 -17.058416 3.553949 -14.426393 -13.058977 -16.403459 26.385810 7.364505 3.195659 -19.268010 -10.975168 17.536910 7.001359 5.531996 -6.321787 0.000000 0.000000 0.000000 6.457390 -6.999526 2.159237 15.310313 4.506014 0.077374 2.756391 -3.190317 0.695831 0.150703 0.115345 -0.001103 0.000000 0.000000 0.000000 5.681812 -0.134929 1.810439 -16.058608 9.945965 -1.100078 -12.157000 -30.789147 -19.731030 0.000000 0.000000 0.000000 4.164254 -2.071655 -0.174237 5.410236 -13.697658 -2.559790 3.775981 -2.308619 0.520673 -34.050023 -11.391747 -79.844645 21.760079 -44.543335 12.766260 0.000000 0.000000 0.000000 6.698757 -1.481079 1.796053 5.150057 16.022902 -18.746328 0.832726 4.453627 -1.834979 -42.068214 22.948862 87.934635 -31.814577 46.620173 24.789471 0.000000 0.000000 0.000000 
